<?xml version="1.0" encoding="utf-8"?>
<!-- Generator: Adobe Illustrator 17.0.0, SVG Export Plug-In . SVG Version: 6.00 Build 0)  -->
<!DOCTYPE svg PUBLIC "-//W3C//DTD SVG 1.1//EN" "http://www.w3.org/Graphics/SVG/1.1/DTD/svg11.dtd">
<svg version="1.1" id="レイヤー_1" xmlns="http://www.w3.org/2000/svg" xmlns:xlink="http://www.w3.org/1999/xlink" x="0px"
	 y="0px" width="20px" height="20px" viewBox="0 0 20 20" enable-background="new 0 0 20 20" xml:space="preserve">
<path d="M14.243,2.929L10,7.171L5.758,2.929l0,0c-0.781-0.781-2.048-0.781-2.828,0s-0.781,2.047,0,2.828l0,0L7.172,10l-4.243,4.243
	c-0.781,0.781-0.781,2.047,0,2.828s2.047,0.781,2.828,0l0.001-0.001L10,12.828l4.243,4.243l0,0l0,0
	c0.781,0.781,2.046,0.781,2.828-0.001s0.781-2.047,0.001-2.828l0,0l0,0L12.829,10l4.242-4.242l0.001-0.001
	c0.781-0.781,0.781-2.047,0-2.828C16.29,2.147,15.024,2.147,14.243,2.929z"/>
</svg>
