<?xml version="1.0" encoding="utf-8"?>
<!-- Generator: Adobe Illustrator 17.0.0, SVG Export Plug-In . SVG Version: 6.00 Build 0)  -->
<!DOCTYPE svg PUBLIC "-//W3C//DTD SVG 1.1//EN" "http://www.w3.org/Graphics/SVG/1.1/DTD/svg11.dtd">
<svg version="1.1" id="レイヤー_1" xmlns="http://www.w3.org/2000/svg" xmlns:xlink="http://www.w3.org/1999/xlink" x="0px"
	 y="0px" width="20px" height="20px" viewBox="0 0 20 20" enable-background="new 0 0 20 20" xml:space="preserve">
<g>
	<g>
		<path fill-rule="evenodd" clip-rule="evenodd" d="M19.553,17.397l-5.577-5.575c0.798-1.205,1.265-2.648,1.265-4.201
			C15.242,3.412,11.83,0,7.621,0S0,3.412,0,7.621c0,4.209,3.412,7.622,7.621,7.622c1.553,0,2.995-0.467,4.2-1.265l5.577,5.575
			c0.595,0.595,1.56,0.595,2.156-0.001C20.149,18.957,20.149,17.992,19.553,17.397z M3.048,7.621c0-2.526,2.047-4.573,4.572-4.573
			c2.525,0,4.573,2.047,4.573,4.573c0,2.525-2.047,4.573-4.573,4.573C5.096,12.193,3.048,10.146,3.048,7.621z"/>
	</g>
</g>
</svg>
