<?xml version="1.0" encoding="utf-8"?>
<!-- Generator: Adobe Illustrator 17.0.0, SVG Export Plug-In . SVG Version: 6.00 Build 0)  -->
<!DOCTYPE svg PUBLIC "-//W3C//DTD SVG 1.1//EN" "http://www.w3.org/Graphics/SVG/1.1/DTD/svg11.dtd">
<svg version="1.1" id="レイヤー_1" xmlns="http://www.w3.org/2000/svg" xmlns:xlink="http://www.w3.org/1999/xlink" x="0px"
	 y="0px" width="26px" height="20px" viewBox="0 0 26 20" enable-background="new 0 0 26 20" xml:space="preserve">
<g>
	<g>
		<path d="M18.475,0c-1.747,0-3.67,0.608-5.604,2.358C10.936,0.608,9.014,0,7.266,0C3.294,0,0.229,3.143,0,3.175v15.05
			c0,0.488,0.397,0.82,0.825,0.82c0.164,0,0.333-0.049,0.486-0.157c1.514-1.07,3.02-1.456,4.404-1.456
			c3.571,0,6.33,2.569,6.33,2.569h1.651c0,0,2.759-2.569,6.33-2.569c1.384,0,2.889,0.386,4.404,1.456
			c0.153,0.108,0.322,0.157,0.486,0.157c0.428,0,0.825-0.332,0.825-0.82V3.175C25.512,3.143,22.447,0,18.475,0z M5.715,15.78
			c-1.417,0-2.779,0.328-4.064,0.978V3.997c1.002-0.789,3.148-2.346,5.615-2.346c1.67,0,3.275,0.738,4.778,2.196v14.067
			C10.751,17.024,8.453,15.78,5.715,15.78z M24.09,16.758c-1.285-0.65-2.646-0.978-4.064-0.978c-2.738,0-5.036,1.244-6.33,2.134
			V3.847c1.504-1.458,3.109-2.196,4.779-2.196c2.467,0,4.612,1.557,5.615,2.346V16.758z"/>
	</g>
</g>
</svg>
