<?xml version="1.0" encoding="utf-8"?>
<!-- Generator: Adobe Illustrator 17.0.0, SVG Export Plug-In . SVG Version: 6.00 Build 0)  -->
<!DOCTYPE svg PUBLIC "-//W3C//DTD SVG 1.1//EN" "http://www.w3.org/Graphics/SVG/1.1/DTD/svg11.dtd">
<svg version="1.1" id="レイヤー_1" xmlns="http://www.w3.org/2000/svg" xmlns:xlink="http://www.w3.org/1999/xlink" x="0px"
	 y="0px" width="26px" height="20px" viewBox="0 0 26 20" enable-background="new 0 0 26 20" xml:space="preserve">
<g>
	<g>
		<path d="M12.717,0C5.694,0,0,4.477,0,10c0,1.245,0.292,2.436,0.821,3.535C0.821,13.534,0.82,13.532,0.82,13.53
			c0.091,0.223,0.308,0.38,0.563,0.38c0.168,0,0.32-0.068,0.43-0.178c0.083-0.083,0.142-0.189,0.166-0.308
			c0.008-0.04,0.012-0.081,0.012-0.123c0-0.042-0.026-0.198-0.026-0.198C1.487,12.138,1.224,11.092,1.224,10
			c0-4.839,5.156-8.776,11.493-8.776c6.337,0,11.493,3.937,11.493,8.776c0,4.839-5.156,8.776-11.493,8.776
			c-2.666,0-4.976-0.634-6.164-2.506C7.26,16.166,8.1,15.555,8.294,13.31c0,0-0.501-0.883-1.024-1.409c0,0-0.373-1.449,0.534-3.04
			C7.852,8.777,7.998,8.489,8.037,8.4c0.739-1.676,2.125-2.238,2.125-2.238c0.734,0.107,1.741-0.016,1.741-0.016
			c3.029-2.676,0.599-3.9,0.599-3.9c-4.109-1.019-6.69,5.066-6.69,5.066S2.596,12.845,5.11,15.7c-0.05,0.18,0.048,0.537,0.435,1.202
			C6.93,19.287,9.595,20,12.717,20c7.024,0,12.717-4.477,12.717-10C25.435,4.477,19.741,0,12.717,0z M13.448,13.415
			c0,0.366,0.308,0.366,0.41,0.366h3.095c0.11,0,0.41,0,0.41-0.379c0-0.375-0.309-0.375-0.41-0.375h-3.095
			C13.699,13.027,13.448,13.058,13.448,13.415z M11.774,14.231H9.64c-0.317,0-0.375,0.229-0.375,0.379
			c0,0.159,0.062,0.384,0.375,0.384h2.416c0.436,0,0.617-0.194,0.617-0.617v-1.918c0-0.511-0.278-0.617-0.617-0.617H9.679
			c-0.282,0-0.379,0.185-0.379,0.388c0,0.088,0.022,0.375,0.379,0.375h2.094c0.075,0,0.115,0.044,0.115,0.119v1.389
			C11.888,14.187,11.848,14.231,11.774,14.231z M12.219,7.359H9.56c-0.079,0-0.379,0-0.379,0.379c0,0.379,0.3,0.379,0.379,0.379
			h2.231c0.049,0,0.088,0.004,0.088,0.071c0,0.049-0.15,1.146-1.375,1.834c-0.348,0.198-0.41,0.234-0.41,0.423
			c0,0.19,0.15,0.415,0.397,0.415c0.309,0,0.944-0.459,1.283-0.811c0.829-0.86,0.97-1.931,0.97-2.213
			C12.743,7.659,12.704,7.359,12.219,7.359z M14.77,9.255V7.469c0-0.26-0.15-0.362-0.414-0.362c-0.203,0-0.392,0.075-0.392,0.362
			v1.786c0,0.251,0.137,0.362,0.41,0.362C14.638,9.616,14.77,9.493,14.77,9.255z M18.534,11.916v0.789
			c0,0.622-0.071,1.239-0.463,1.781c-0.172,0.238-0.19,0.264-0.19,0.37c0,0.229,0.225,0.41,0.45,0.41
			c0.234,0,0.432-0.243,0.617-0.604c0.362-0.714,0.375-1.459,0.375-1.975v-0.772c0-0.238-0.123-0.353-0.406-0.353
			C18.688,11.564,18.534,11.661,18.534,11.916z M21.36,8.62h-3.095c-0.159,0-0.41,0.031-0.41,0.388c0,0.366,0.308,0.366,0.41,0.366
			h3.095c0.11,0,0.41,0,0.41-0.379C21.77,8.62,21.461,8.62,21.36,8.62z M20.05,11.497c-0.278,0-0.379,0.141-0.379,0.353v2.91
			c0,0.075,0,0.454,0.397,0.454c0.401,0,1.054-0.551,1.142-0.626c0.291-0.247,0.666-0.613,0.666-0.846
			c0-0.229-0.225-0.379-0.384-0.379c-0.132,0-0.172,0.048-0.388,0.295c-0.326,0.375-0.595,0.52-0.626,0.52
			c-0.022,0-0.022-0.026-0.022-0.088v-2.24C20.456,11.608,20.324,11.497,20.05,11.497z M16.216,10.405
			c0.547-0.503,0.622-1.182,0.622-1.821V7.403c0-0.251-0.137-0.362-0.414-0.362c-0.375,0-0.388,0.251-0.388,0.362v1.252
			c0,0.538-0.115,1.098-0.798,1.429c-0.304,0.15-0.406,0.194-0.406,0.397c0,0.168,0.115,0.432,0.397,0.432
			C15.458,10.912,15.93,10.666,16.216,10.405z"/>
	</g>
</g>
</svg>
