<?xml version="1.0" encoding="utf-8"?>
<!-- Generator: Adobe Illustrator 17.0.0, SVG Export Plug-In . SVG Version: 6.00 Build 0)  -->
<!DOCTYPE svg PUBLIC "-//W3C//DTD SVG 1.1//EN" "http://www.w3.org/Graphics/SVG/1.1/DTD/svg11.dtd">
<svg version="1.1" id="レイヤー_1" xmlns="http://www.w3.org/2000/svg" xmlns:xlink="http://www.w3.org/1999/xlink" x="0px"
	 y="0px" width="15px" height="20px" viewBox="0 0 15 20" enable-background="new 0 0 15 20" xml:space="preserve">
<g>
	<g>
		<path d="M8.695,0H2.609C1.168,0,0,1.168,0,2.609v14.783C0,18.832,1.168,20,2.609,20h9.565c1.441,0,2.609-1.168,2.609-2.609V6.087
			L8.695,0z M13.043,17.391c0,0.479-0.39,0.87-0.87,0.87H2.609c-0.479,0-0.87-0.39-0.87-0.87V2.609c0-0.479,0.39-0.87,0.87-0.87
			h5.217v3.478c0,0.961,0.779,1.739,1.739,1.739h3.478V17.391z M3.478,9.565c0,0.481,0.389,0.87,0.87,0.87h6.087
			c0.481,0,0.87-0.389,0.87-0.87c0-0.48-0.389-0.87-0.87-0.87H4.348C3.867,8.696,3.478,9.085,3.478,9.565z M10.435,11.304H4.348
			c-0.481,0-0.87,0.389-0.87,0.87s0.389,0.87,0.87,0.87h6.087c0.481,0,0.87-0.389,0.87-0.87S10.915,11.304,10.435,11.304z
			 M10.435,13.913H4.348c-0.481,0-0.87,0.389-0.87,0.87s0.389,0.87,0.87,0.87h6.087c0.481,0,0.87-0.389,0.87-0.87
			S10.915,13.913,10.435,13.913z"/>
	</g>
</g>
</svg>
