<?xml version="1.0" encoding="utf-8"?>
<!-- Generator: Adobe Illustrator 17.0.0, SVG Export Plug-In . SVG Version: 6.00 Build 0)  -->
<!DOCTYPE svg PUBLIC "-//W3C//DTD SVG 1.1//EN" "http://www.w3.org/Graphics/SVG/1.1/DTD/svg11.dtd">
<svg version="1.1" id="レイヤー_1" xmlns="http://www.w3.org/2000/svg" xmlns:xlink="http://www.w3.org/1999/xlink" x="0px"
	 y="0px" width="12px" height="20px" viewBox="0 0 12 20" enable-background="new 0 0 12 20" xml:space="preserve">
<circle fill-rule="evenodd" clip-rule="evenodd" cx="6" cy="4" r="4"/>
<path fill-rule="evenodd" clip-rule="evenodd" d="M6,8c-3.314,0-6,2.686-6,6c0,2.04,3.844,6,4,6
	c-0.084-0.103,3.681-0.114,3.681-0.114S12,16.034,12,14C12,10.686,9.314,8,6,8z M9,13l-1.703,2.555C7.111,15.833,6.799,16,6.465,16
	h-0.93c-0.334,0-0.647-0.167-0.832-0.445L3,13c0,0,0-0.324,0-0.5C3,11.672,3.672,11,4.5,11S6,11.672,6,12.5
	C6,11.672,6.672,11,7.5,11S9,11.672,9,12.5C9,12.676,9,13,9,13z"/>
</svg>
