<?xml version="1.0" encoding="utf-8"?>
<!-- Generator: Adobe Illustrator 17.0.0, SVG Export Plug-In . SVG Version: 6.00 Build 0)  -->
<!DOCTYPE svg PUBLIC "-//W3C//DTD SVG 1.1//EN" "http://www.w3.org/Graphics/SVG/1.1/DTD/svg11.dtd">
<svg version="1.1" id="レイヤー_1" xmlns="http://www.w3.org/2000/svg" xmlns:xlink="http://www.w3.org/1999/xlink" x="0px"
	 y="0px" width="20px" height="20px" viewBox="0 0 20 20" enable-background="new 0 0 20 20" xml:space="preserve">
<path fill-rule="evenodd" clip-rule="evenodd" d="M18,8h-6V2l0,0c0-1.105-0.896-2-2-2S8,0.895,8,2l0,0v6H2c-1.105,0-2,0.895-2,2
	s0.895,2,2,2l0.001,0H8v6l0,0v0c0,1.104,0.895,1.999,2,1.999s2-0.895,2-1.999v0l0,0v-6h5.999L18,12c1.105,0,2-0.895,2-2
	S19.105,8,18,8z"/>
</svg>
